<mxfile host="app.diagrams.net" agent="Mozilla/5.0 (Macintosh; Intel Mac OS X 10_15_7) AppleWebKit/537.36 (KHTML, like Gecko) Chrome/135.0.0.0 Safari/537.36" version="26.2.14">
  <diagram id="R2lEEEUBdFMjLlhIrx00" name="Page-1">
    <mxGraphModel dx="1041" dy="569" grid="1" gridSize="10" guides="1" tooltips="1" connect="1" arrows="1" fold="1" page="1" pageScale="1" pageWidth="850" pageHeight="1100" math="0" shadow="0" extFonts="Permanent Marker^https://fonts.googleapis.com/css?family=Permanent+Marker">
      <root>
        <mxCell id="0" />
        <mxCell id="1" parent="0" />
        <mxCell id="vfj-QrY9LV4KviRlO9dK-5" value="" style="edgeStyle=orthogonalEdgeStyle;rounded=0;orthogonalLoop=1;jettySize=auto;html=1;" edge="1" parent="1" source="vfj-QrY9LV4KviRlO9dK-2" target="vfj-QrY9LV4KviRlO9dK-4">
          <mxGeometry relative="1" as="geometry" />
        </mxCell>
        <mxCell id="vfj-QrY9LV4KviRlO9dK-8" value="是" style="edgeLabel;html=1;align=center;verticalAlign=middle;resizable=0;points=[];" vertex="1" connectable="0" parent="vfj-QrY9LV4KviRlO9dK-5">
          <mxGeometry x="-0.0205" relative="1" as="geometry">
            <mxPoint as="offset" />
          </mxGeometry>
        </mxCell>
        <mxCell id="vfj-QrY9LV4KviRlO9dK-10" value="" style="edgeStyle=orthogonalEdgeStyle;rounded=0;orthogonalLoop=1;jettySize=auto;html=1;" edge="1" parent="1" source="vfj-QrY9LV4KviRlO9dK-2" target="vfj-QrY9LV4KviRlO9dK-9">
          <mxGeometry relative="1" as="geometry" />
        </mxCell>
        <mxCell id="vfj-QrY9LV4KviRlO9dK-11" value="否" style="edgeLabel;html=1;align=center;verticalAlign=middle;resizable=0;points=[];" vertex="1" connectable="0" parent="vfj-QrY9LV4KviRlO9dK-10">
          <mxGeometry x="-0.1933" relative="1" as="geometry">
            <mxPoint as="offset" />
          </mxGeometry>
        </mxCell>
        <mxCell id="vfj-QrY9LV4KviRlO9dK-2" value="标签组id是否为空" style="rhombus;whiteSpace=wrap;html=1;" vertex="1" parent="1">
          <mxGeometry x="280" y="80" width="240" height="80" as="geometry" />
        </mxCell>
        <mxCell id="vfj-QrY9LV4KviRlO9dK-4" value="返回参数错误" style="rounded=1;whiteSpace=wrap;html=1;" vertex="1" parent="1">
          <mxGeometry x="660" y="90" width="120" height="60" as="geometry" />
        </mxCell>
        <mxCell id="vfj-QrY9LV4KviRlO9dK-13" value="" style="edgeStyle=orthogonalEdgeStyle;rounded=0;orthogonalLoop=1;jettySize=auto;html=1;" edge="1" parent="1" source="vfj-QrY9LV4KviRlO9dK-9" target="vfj-QrY9LV4KviRlO9dK-12">
          <mxGeometry relative="1" as="geometry" />
        </mxCell>
        <mxCell id="vfj-QrY9LV4KviRlO9dK-9" value="标签数量是否大于等于1 &amp;amp;&amp;amp; 小于等于50" style="rhombus;whiteSpace=wrap;html=1;" vertex="1" parent="1">
          <mxGeometry x="240" y="220" width="320" height="80" as="geometry" />
        </mxCell>
        <mxCell id="vfj-QrY9LV4KviRlO9dK-12" value="返回参数错误" style="rounded=1;whiteSpace=wrap;html=1;" vertex="1" parent="1">
          <mxGeometry x="660" y="230" width="120" height="60" as="geometry" />
        </mxCell>
      </root>
    </mxGraphModel>
  </diagram>
</mxfile>
